<?xml version="1.0" encoding="utf-8"?>
<!-- Generator: Adobe Illustrator 26.3.1, SVG Export Plug-In . SVG Version: 6.00 Build 0)  -->
<svg version="1.1" id="Layer_1" xmlns="http://www.w3.org/2000/svg" xmlns:xlink="http://www.w3.org/1999/xlink" x="0px" y="0px"
	 viewBox="0 0 431.55 254.68" style="enable-background:new 0 0 431.55 254.68;" xml:space="preserve">
<style type="text/css">
	.st0{opacity:0.15;fill:#231F20;}
	.st1{fill:#BF7B5E;}
	.st2{fill:url(#SVGID_1_);}
	.st3{fill:#404042;stroke:#404042;stroke-width:1.0399;}
	.st4{fill:#FFFFFF;}
	.st5{fill:#1C3557;}
	.st6{fill:#FFFFFF;stroke:#EDECED;stroke-width:0.9747;}
	.st7{fill:#FF6B00;}
	.st8{fill:#8D7266;}
	.st9{fill:#343434;}
	.st10{fill:none;stroke:#EACE63;stroke-width:0.7956;stroke-linecap:round;stroke-miterlimit:10;}
	.st11{fill:#856B60;}
	.st12{fill:#F28A27;}
	.st13{clip-path:url(#SVGID_00000027601621132207695290000003890925177242688918_);}
	.st14{clip-path:url(#SVGID_00000151506363769796503070000016005816222968061596_);fill:#ED6D26;}
	.st15{fill:#EACE63;}
	.st16{fill:#2A292A;}
	.st17{clip-path:url(#SVGID_00000043424182119047516810000012413070517974355340_);}
	.st18{clip-path:url(#SVGID_00000043441677749244767800000002009847589807400076_);fill:#ED6D26;}
	.st19{clip-path:url(#SVGID_00000178914702842547780700000006376740037968809132_);}
	.st20{clip-path:url(#SVGID_00000088849485949203608620000011245198003082347694_);fill:#CCCBCA;}
	.st21{fill:url(#SVGID_00000021099983556965580620000016274502769030009760_);}
	.st22{fill:#414142;stroke:#414142;stroke-width:0.3266;}
	.st23{fill:#F18724;}
	.st24{fill:#F1D0B5;}
	.st25{fill:#C8D3DC;}
	.st26{fill:#ECC19C;}
	.st27{fill:#404042;stroke:#404042;stroke-width:0.4667;}
	.st28{fill:#4E4E50;}
	.st29{fill:#404042;}
	.st30{fill:none;}
	.st31{fill:url(#SVGID_00000010992244798766693390000005692828758228108478_);}
	.st32{fill:#CEAB8B;}
	.st33{fill:#F18924;}
	.st34{fill:#1B1B1B;}
	.st35{fill:#D1DDE6;}
	.st36{opacity:0.5;fill:#D1DDE6;}
	.st37{fill:#4F4D4D;}
	.st38{fill:url(#SVGID_00000151542908328638063690000011670624240614660238_);}
	.st39{fill:#404042;stroke:#404042;stroke-width:0.3234;}
	.st40{fill:#72534B;}
	.st41{fill:#51B68D;}
	.st42{fill:#57B576;}
	.st43{fill:#EBD064;}
	.st44{opacity:0.5;fill:#EF7926;}
	.st45{fill:none;stroke:#FFFFFF;stroke-width:0.8018;stroke-linecap:round;stroke-miterlimit:10;}
	.st46{opacity:0.3;fill:#F1D0B5;}
	.st47{fill:#674B44;}
	.st48{fill:#77BDB1;}
	.st49{opacity:0.5;}
	.st50{fill:url(#SVGID_00000051359489292464581890000001144269144452401329_);}
	.st51{fill:#905D46;}
	.st52{fill:#AAACAD;}
	.st53{fill:#BDBEC0;}
	.st54{fill:#F2F2F2;}
	.st55{fill:#B07257;}
	.st56{fill:#3A3436;}
	.st57{fill:none;stroke:#303030;stroke-width:1.2926;stroke-linecap:round;stroke-miterlimit:10;}
	.st58{fill:#303030;}
</style>
<path class="st0" d="M278.39,110.16l-4.86-10.55l23.57-42.23c4.17-7.48,1.48-16.96-6-21.14l-45.65-25.48
	c-7.48-4.17-16.96-1.48-21.14,6L172,110.49c-4.17,7.48-1.48,16.96,6,21.14l7.48,4.17c-6.09,11.21-4.6,24.57,2.82,34.08l-21.63,38.1
	c-8.23,14.29-3.35,32.54,10.92,40.81l0,0c14.36,8.32,32.75,3.36,40.97-11.06l58.98-107.54
	C281.03,124.04,281.35,116.58,278.39,110.16z"/>
<g>
	<path class="st1" d="M164.11,147.09L164.11,147.09c6.75-17.5,26.4-26.22,43.91-19.48l3.98,2.12c17.5,6.75,26.22,26.4,19.48,43.91
		l0,0c-6.75,17.5-26.4,26.22-43.91,19.48l-3.98-2.12C166.08,184.25,157.36,164.6,164.11,147.09z"/>
	<path class="st1" d="M262.16,126.91l-40.01,105.54c-6.55,16.84-25.56,25.13-42.36,18.47l0,0c-16.69-6.62-24.87-25.51-18.28-42.21
		l61.92-159.24l36.46,55.74C264.09,111.64,264.94,119.72,262.16,126.91z"/>
	<g>
		<g>
			
				<linearGradient id="SVGID_1_" gradientUnits="userSpaceOnUse" x1="8114.1606" y1="594.1527" x2="8125.1509" y2="681.0755" gradientTransform="matrix(-0.9295 -0.3689 -0.3689 0.9295 7991.1245 2484.2996)">
				<stop  offset="0" style="stop-color:#2AABE3"/>
				<stop  offset="1" style="stop-color:#1E76BC"/>
			</linearGradient>
			<path class="st2" d="M260.95,27.02l-52.91-21c-7.11-2.82-15.16,0.65-17.99,7.77l-43.11,108.63c-2.82,7.11,0.65,15.16,7.77,17.99
				l52.91,21c7.11,2.82,15.16-0.65,17.99-7.77l43.11-108.63C271.54,37.89,268.06,29.84,260.95,27.02z"/>
			<path class="st3" d="M144.09,121.29l43.11-108.63c3.44-8.67,13.3-12.93,21.97-9.48l52.91,21c8.67,3.44,12.93,13.29,9.48,21.97
				l-43.11,108.63c-3.44,8.67-13.3,12.93-21.97,9.48l-52.91-21C144.91,139.82,140.65,129.96,144.09,121.29z M206.91,8.87
				c-5.53-2.19-11.81,0.52-14.01,6.05l-43.11,108.63c-2.19,5.53,0.52,11.81,6.05,14.01l52.91,21c5.53,2.19,11.81-0.52,14.01-6.05
				l43.11-108.63c2.19-5.53-0.52-11.81-6.05-14.01L206.91,8.87z"/>
		</g>
		<g>
			<line class="st4" x1="203.58" y1="150.61" x2="165.06" y2="135.32"/>
			<path class="st5" d="M164.53,136.63l38.53,15.29c0.73,0.29,1.55-0.07,1.84-0.79c0.29-0.73-0.07-1.55-0.79-1.84L165.58,134
				c-0.73-0.29-1.55,0.07-1.84,0.79C163.45,135.52,163.81,136.34,164.53,136.63z"/>
		</g>
	</g>
	<path class="st1" d="M182.56,172.63c0.22-3.35,0.94-6.73,2.21-10.04l0,0c6.75-17.5,26.4-26.22,43.91-19.48l7.03,2.93l-16.34,41.19
		L182.56,172.63z"/>
	<path class="st1" d="M234.01,94.1L234.01,94.1c6.88,2.65,10.3,10.37,7.65,17.25l-21.2,52.88c-2.65,6.88-10.37,10.3-17.25,7.65l0,0
		c-6.88-2.65-10.3-10.37-7.65-17.25l21.2-52.88C219.42,94.88,227.14,91.45,234.01,94.1z"/>
	<g>
		<path class="st6" d="M249.79,54.98c-1.13-2.62-3.37-4.75-6.27-5.89L212.07,36.6c-3.31-1.31-6.9-1.22-10.14-0.16
			c-3.24,1.07-6.19,3.16-8.13,6.16l-10.87,16.97c-0.46,0.72-0.84,1.46-1.14,2.21c-1.12,2.8-1.1,5.84,0.05,8.45
			c1.13,2.61,3.35,4.74,6.24,5.88c0.01,0.01,0.02,0.01,0.03,0.01l31.45,12.48c3.31,1.31,6.91,1.22,10.15,0.15
			c3.24-1.08,6.19-3.16,8.12-6.16l10.87-16.97c0.46-0.72,0.84-1.46,1.13-2.21C250.96,60.63,250.94,57.58,249.79,54.98z"/>
		<path class="st7" d="M242.42,51.87l-31.45-12.48c-5.08-2.02-11.63,0.15-14.63,4.84L185.46,61.2c-3,4.69-1.32,10.12,3.76,12.14
			l31.45,12.48c5.08,2.02,11.63-0.15,14.63-4.84l10.88-16.97C249.18,59.32,247.49,53.89,242.42,51.87z M239.41,58.29l-22.42,2.28
			l-8.47-14.35L239.41,58.29z M228.73,78.38c-0.86,1.34-2.73,1.96-4.18,1.38L193.1,67.28c-1.45-0.58-1.94-2.12-1.08-3.47l9.59-14.87
			l10.93,18.58l24.64-2.23L228.73,78.38z"/>
	</g>
</g>
<g>
	<path class="st8" d="M74.29,119.86L74.29,119.86c-2.21,1.15-4.94,0.31-6.11-1.89l-7.71-14.57c-1.16-2.2-0.31-4.91,1.9-6.07
		c2.21-1.15,4.94-0.31,6.11,1.89l7.71,14.57C77.35,115.99,76.5,118.7,74.29,119.86"/>
	<path class="st8" d="M68.71,99.8c-0.84-2.34-3.42-3.56-5.78-2.73c-2.35,0.83-3.58,3.4-2.75,5.74c0.84,2.34,3.42,3.56,5.78,2.73
		C68.31,104.71,69.54,102.14,68.71,99.8"/>
	<path class="st9" d="M44.7,53.1L44.7,53.1c-10.76,0.01-19.47,8.69-19.46,19.38l0.02,17.05c0.01,10.69,8.74,19.34,19.51,19.33
		c10.76-0.01,19.47-8.69,19.46-19.38l-0.02-17.05C64.2,61.74,55.46,53.08,44.7,53.1"/>
	<path class="st8" d="M38.76,74.59c0-1.6-1.31-2.9-2.92-2.9c-1.61,0-2.92,1.3-2.92,2.9c0,1.6,1.31,2.9,2.92,2.9
		C37.45,77.5,38.76,76.2,38.76,74.59"/>
	<path class="st10" d="M37.91,77.3c0.23,0.46,0.36,1.01,0.36,1.6c0,1.57-0.91,2.84-2.04,2.84s-2.04-1.27-2.04-2.83
		c0-1.57,0.91-2.84,2.04-2.84"/>
	<path class="st8" d="M73.4,74.55c0-1.6-1.31-2.9-2.92-2.9c-1.61,0-2.92,1.3-2.92,2.9c0,1.6,1.31,2.9,2.92,2.9
		C72.1,77.46,73.4,76.16,73.4,74.55"/>
	<path class="st10" d="M67.54,77.27c-0.23,0.46-0.36,1.01-0.36,1.61c0,1.57,0.92,2.84,2.04,2.83s2.04-1.27,2.04-2.84
		c0-1.57-0.92-2.84-2.04-2.83"/>
	<path class="st8" d="M46.92,219.57L46.92,219.57c3.3,0,5.98-2.67,5.97-5.95l-0.05-45.98c0-3.28-2.68-5.94-5.99-5.93
		c-3.3,0-5.98,2.67-5.97,5.95l0.05,45.98C40.94,216.92,43.62,219.58,46.92,219.57"/>
	<path class="st8" d="M46.87,173.6L46.87,173.6c3.3,0,5.98-2.67,5.97-5.95l-0.05-39.72c0-3.28-2.68-5.94-5.99-5.93
		c-3.3,0-5.98,2.67-5.97,5.95l0.05,39.72C40.89,170.94,43.57,173.6,46.87,173.6"/>
	<path class="st8" d="M52.85,167.65c0-3.28-2.68-5.94-5.99-5.93c-3.3,0-5.98,2.67-5.97,5.95c0,3.28,2.68,5.94,5.99,5.93
		C50.17,173.59,52.85,170.93,52.85,167.65"/>
	<path class="st8" d="M52.8,127.93c0-3.28-2.68-5.94-5.99-5.93c-3.3,0-5.98,2.67-5.97,5.95c0,3.28,2.68,5.94,5.99,5.93
		C50.13,133.87,52.8,131.21,52.8,127.93"/>
	<path class="st9" d="M52.89,208.6l0.01,5.02c0,3.28-2.67,5.94-5.97,5.95c-3.3,0-5.98-2.65-5.99-5.93l-0.01-5.02L52.89,208.6z"/>
	<path class="st8" d="M59.97,219.56L59.97,219.56c3.3,0,5.98-2.67,5.97-5.95l-0.05-45.98c0-3.28-2.68-5.94-5.99-5.93
		c-3.3,0-5.98,2.67-5.97,5.95l0.05,45.98C53.99,216.91,56.67,219.56,59.97,219.56"/>
	<path class="st8" d="M59.92,173.58L59.92,173.58c3.3,0,5.98-2.67,5.97-5.95l-0.05-39.72c0-3.28-2.68-5.94-5.99-5.93
		c-3.3,0-5.98,2.67-5.97,5.95l0.05,39.72C53.94,170.93,56.62,173.59,59.92,173.58"/>
	<path class="st8" d="M65.89,167.63c0-3.28-2.68-5.94-5.99-5.93c-3.3,0-5.98,2.67-5.97,5.95c0,3.28,2.68,5.94,5.99,5.93
		C63.22,173.58,65.9,170.92,65.89,167.63"/>
	<path class="st8" d="M65.85,127.91c0-3.28-2.68-5.94-5.99-5.93c-3.3,0-5.98,2.67-5.97,5.95c0,3.28,2.68,5.94,5.99,5.93
		C63.18,133.85,65.85,131.19,65.85,127.91"/>
	
		<rect x="40.91" y="181.57" transform="matrix(1 -1.130133e-03 1.130133e-03 1 -0.2109 0.0531)" class="st11" width="11.96" height="10.16"/>
	
		<rect x="53.96" y="181.55" transform="matrix(1 -1.130133e-03 1.130133e-03 1 -0.2109 0.0679)" class="st11" width="11.96" height="10.16"/>
	<path class="st12" d="M38.3,187.78l29.16-0.03l3.33-43.53c0.74-9.69-2.91-19.2-9.97-25.94v0l-16.04,0.02v0
		c-7.04,6.75-10.67,16.27-9.91,25.96L38.3,187.78z"/>
	<g>
		<defs>
			
				<rect id="SVGID_00000176732786398534302380000009018872112407505795_" x="56.8" y="118.16" transform="matrix(1 -1.130133e-03 1.130133e-03 1 -0.1729 0.0723)" width="14.16" height="69.72"/>
		</defs>
		<clipPath id="SVGID_00000176016102732218534960000010152874400881424258_">
			<use xlink:href="#SVGID_00000176732786398534302380000009018872112407505795_"  style="overflow:visible;"/>
		</clipPath>
		<g style="clip-path:url(#SVGID_00000176016102732218534960000010152874400881424258_);">
			<defs>
				
					<rect id="SVGID_00000180344470624677106680000007745939102918419597_" x="56.85" y="118.27" transform="matrix(1 -1.130133e-03 1.130133e-03 1 -0.1729 0.0723)" width="14.04" height="69.48"/>
			</defs>
			<clipPath id="SVGID_00000035518186875430217410000013910461043395887016_">
				<use xlink:href="#SVGID_00000180344470624677106680000007745939102918419597_"  style="overflow:visible;"/>
			</clipPath>
			<path style="clip-path:url(#SVGID_00000035518186875430217410000013910461043395887016_);fill:#ED6D26;" d="M56.81,118.27
				L56.81,118.27l4.01,0v0c7.05,6.73,10.71,16.25,9.97,25.94l-3.33,43.53l-4.01,0l3.33-43.53
				C67.52,134.52,63.87,125.01,56.81,118.27"/>
		</g>
	</g>
	<path class="st9" d="M65.94,208.59l0.01,5.02c0,3.28-2.67,5.94-5.97,5.95c-3.3,0-5.98-2.65-5.99-5.93l-0.01-5.02L65.94,208.59z"/>
	<path class="st12" d="M59.93,96.32l-14.31,0.02c-5.32,3.63-6.69,10.85-3.06,16.15l2.12,3.11l16.24-0.02l2.12-3.11
		C66.64,107.15,65.26,99.94,59.93,96.32"/>
	
		<rect x="44.78" y="115.59" transform="matrix(1 -1.130133e-03 1.130133e-03 1 -0.1321 0.0598)" class="st9" width="16.14" height="2.69"/>
	
		<rect x="50.04" y="114.75" transform="matrix(1 -1.130133e-03 1.130133e-03 1 -0.132 0.0601)" class="st15" width="6.21" height="4.22"/>
	<path class="st8" d="M56.05,82.75l-6.53,0.01l0.02,15.68c0,1.79,1.47,3.24,3.27,3.24c1.8,0,3.26-1.46,3.26-3.25L56.05,82.75z"/>
	<path class="st11" d="M56.06,92.74c-1.02,0.2-2.08,0.31-3.15,0.31c-1.16,0-2.29-0.12-3.37-0.35l-0.01-9.94l6.53-0.01L56.06,92.74z"
		/>
	<path class="st8" d="M52.86,54.24L52.86,54.24c-9.02,0.01-16.33,7.28-16.32,16.24l0.01,4.38c0.01,8.96,7.33,16.22,16.35,16.21
		c9.02-0.01,16.33-7.28,16.32-16.24l-0.01-4.38C69.2,61.49,61.88,54.23,52.86,54.24"/>
	<path class="st8" d="M65.02,74.84l-0.01-4.38C65,62.2,58.79,55.4,50.76,54.38c0.69-0.09,1.39-0.14,2.1-0.14
		c9.02-0.01,16.34,7.25,16.35,16.21l0.01,4.38c0.01,8.96-7.3,16.23-16.32,16.24c-0.71,0-1.41-0.05-2.1-0.14
		C58.83,89.91,65.03,83.09,65.02,74.84"/>
	<path class="st4" d="M57.09,80.77c0,2.31-1.88,4.18-4.2,4.18c-2.32,0-4.2-1.86-4.21-4.17L57.09,80.77z"/>
	<path class="st9" d="M52.94,53.09c10.6,0.1,19.18,8.62,19.29,19.16c-10.64,0.01-19.27-8.55-19.29-19.11L52.94,53.09z"/>
	<path class="st16" d="M42.2,71.9h-8.95c0.3-10.43,8.9-18.8,19.47-18.8c2.5,0,4.88,0.47,7.07,1.32C59.79,64.07,51.92,71.9,42.2,71.9
		"/>
	<path class="st9" d="M61.52,74.34c0-0.94-0.77-1.7-1.71-1.7c-0.94,0-1.71,0.76-1.71,1.7c0,0.94,0.77,1.7,1.71,1.7
		C60.75,76.04,61.52,75.28,61.52,74.34"/>
	<path class="st9" d="M52.16,74.35c0-0.94-0.77-1.7-1.71-1.7c-0.94,0-1.71,0.76-1.71,1.7c0,0.94,0.77,1.7,1.71,1.7
		C51.4,76.05,52.16,75.29,52.16,74.35"/>
	<path class="st8" d="M62.03,215.06L62.03,215.06c1.14,0,2.06-0.92,2.06-2.05l0-1.49l-4.13,0l0,1.49
		C59.97,214.15,60.89,215.06,62.03,215.06"/>
	<g>
		<defs>
			
				<rect id="SVGID_00000164471501861885110350000017663254575510617279_" x="55.6" y="96.27" transform="matrix(1 -1.130133e-03 1.130133e-03 1 -0.1197 0.0684)" width="9.76" height="19.39"/>
		</defs>
		<clipPath id="SVGID_00000015345593994839995450000010179786187078672299_">
			<use xlink:href="#SVGID_00000164471501861885110350000017663254575510617279_"  style="overflow:visible;"/>
		</clipPath>
		<g style="clip-path:url(#SVGID_00000015345593994839995450000010179786187078672299_);">
			<defs>
				<polygon id="SVGID_00000093897386900610050720000014963644541043442585_" points="65.06,115.57 55.89,115.58 56.06,96.33 
					65.04,96.32 				"/>
			</defs>
			<clipPath id="SVGID_00000089560578053148101440000008194060481534079401_">
				<use xlink:href="#SVGID_00000093897386900610050720000014963644541043442585_"  style="overflow:visible;"/>
			</clipPath>
			<path style="clip-path:url(#SVGID_00000089560578053148101440000008194060481534079401_);fill:#ED6D26;" d="M55.87,96.33l4.07,0
				c5.33,3.62,6.71,10.83,3.1,16.14l-2.12,3.11l-4.07,0l2.12-3.11C62.58,107.16,61.19,99.94,55.87,96.33"/>
		</g>
	</g>
	<path class="st8" d="M49.52,215.07L49.52,215.07c1.14,0,2.06-0.92,2.06-2.05l0-1.49l-4.13,0l0,1.49
		C47.45,214.16,48.38,215.08,49.52,215.07"/>
	<g>
		<defs>
			
				<rect id="SVGID_00000011742717176711065210000002010756541660983986_" x="58.33" y="115.35" transform="matrix(1 -1.130133e-03 1.130133e-03 1 -0.1321 0.0674)" width="2.52" height="3.13"/>
		</defs>
		<clipPath id="SVGID_00000070814769181838538910000016276119213041319862_">
			<use xlink:href="#SVGID_00000011742717176711065210000002010756541660983986_"  style="overflow:visible;"/>
		</clipPath>
		<g style="clip-path:url(#SVGID_00000070814769181838538910000016276119213041319862_);">
			<defs>
				
					<rect id="SVGID_00000172405757580044099560000005356903624232538531_" x="58.42" y="115.58" transform="matrix(1 -1.130133e-03 1.130133e-03 1 -0.1321 0.0674)" width="2.39" height="2.69"/>
			</defs>
			<clipPath id="SVGID_00000089556653591123122600000009713083192105427888_">
				<use xlink:href="#SVGID_00000172405757580044099560000005356903624232538531_"  style="overflow:visible;"/>
			</clipPath>
			
				<rect x="58.42" y="115.58" transform="matrix(1 -1.130133e-03 1.130133e-03 1 -0.1321 0.0674)" style="clip-path:url(#SVGID_00000089556653591123122600000009713083192105427888_);fill:#CCCBCA;" width="2.39" height="2.69"/>
		</g>
	</g>
	<g>
		<path class="st8" d="M9.71,66.21L9.71,66.21c0.11-0.95,0.97-1.63,1.93-1.53l3.4,0.49c0.96,0.11,1.64,0.97,1.54,1.92l0,0
			c-0.11,0.95-0.97,1.63-1.93,1.53l-3.4-0.49C10.29,68.02,9.6,67.16,9.71,66.21z"/>
		<path class="st8" d="M16.8,77.76L16.8,77.76c-0.57-2.53,1.04-5.04,3.59-5.6L23,71.67c2.55-0.56,5.08,1.04,5.64,3.57l0,0
			c0.57,2.53-1.04,5.04-3.59,5.6l-2.61,0.48C19.89,81.89,17.36,80.29,16.8,77.76z"/>
		<g>
			<g>
				<g>
					
						<linearGradient id="SVGID_00000017509770986097249850000017620598846158592396_" gradientUnits="userSpaceOnUse" x1="-419.6753" y1="-317.5849" x2="-419.2701" y2="-306.916" gradientTransform="matrix(-0.9929 -0.1193 -0.1193 0.9929 -433.4975 325.0973)">
						<stop  offset="0" style="stop-color:#2CAAE1"/>
						<stop  offset="1" style="stop-color:#1F76BB"/>
					</linearGradient>
					<path style="fill:url(#SVGID_00000017509770986097249850000017620598846158592396_);" d="M22,56.26l-5.77,0.51
						c-1.06,0.09-1.84,1.02-1.75,2.08l1.45,16.1c0.09,1.05,1.03,1.83,2.09,1.74l5.77-0.51c1.06-0.09,1.84-1.02,1.75-2.08L24.1,58
						C24,56.94,23.07,56.16,22,56.26z"/>
					<path class="st22" d="M16.34,76.57c-0.48-0.4-0.78-0.96-0.84-1.59l-1.45-16.1c-0.06-0.62,0.14-1.23,0.54-1.71
						c0.4-0.48,0.97-0.77,1.6-0.83l5.77-0.51c1.29-0.11,2.44,0.84,2.56,2.12l1.45,16.1c0.12,1.29-0.84,2.42-2.14,2.54l-5.77,0.51
						c-0.17,0.01-0.33,0.01-0.49-0.01C17.12,77.05,16.7,76.87,16.34,76.57z M22.04,56.68l-5.77,0.51c-0.4,0.04-0.76,0.22-1.02,0.53
						c-0.26,0.31-0.38,0.69-0.34,1.09l1.45,16.1c0.04,0.4,0.22,0.76,0.53,1.01c0.31,0.26,0.7,0.38,1.1,0.34l5.77-0.51
						c0.83-0.07,1.44-0.8,1.36-1.62l-1.45-16.1c-0.06-0.71-0.63-1.27-1.32-1.35C22.25,56.67,22.15,56.67,22.04,56.68z"/>
				</g>
				<g>
					<line class="st4" x1="22.61" y1="75.09" x2="18.99" y2="75.41"/>
					<path class="st5" d="M18.97,75.61c0.01,0,0.03,0,0.04,0l3.62-0.32c0.11-0.01,0.19-0.1,0.18-0.21c-0.01-0.11-0.1-0.19-0.21-0.18
						l-3.62,0.32c-0.11,0.01-0.19,0.1-0.18,0.21C18.8,75.52,18.88,75.6,18.97,75.61z"/>
				</g>
			</g>
		</g>
		<g>
			<path class="st8" d="M13.63,75.87L13.63,75.87c0.11-0.95,0.97-1.63,1.93-1.53l1.48,0.21c0.96,0.11,1.64,0.97,1.54,1.92l0,0
				c-0.11,0.95-0.97,1.63-1.93,1.53l-1.48-0.21C14.21,77.68,13.52,76.82,13.63,75.87z"/>
			<path class="st8" d="M13.02,73.01L13.02,73.01c0.11-0.95,0.97-1.63,1.93-1.53l1.48,0.21c0.96,0.11,1.64,0.97,1.54,1.92l0,0
				c-0.11,0.95-0.97,1.63-1.93,1.53l-1.48-0.21C13.6,74.82,12.91,73.97,13.02,73.01z"/>
			<path class="st8" d="M12.33,69.78L12.33,69.78c0.11-0.95,0.97-1.63,1.93-1.53l1.48,0.21c0.96,0.11,1.64,0.97,1.54,1.92l0,0
				c-0.11,0.95-0.97,1.63-1.93,1.53l-1.48-0.21C12.91,71.58,12.22,70.73,12.33,69.78z"/>
		</g>
		<path class="st8" d="M22.89,78.87c-0.23-0.4-0.41-0.85-0.52-1.33l0,0c-0.57-2.53,1.04-5.04,3.59-5.6l1.04-0.2l1.28,6L22.89,78.87z
			"/>
		<g>
			<path class="st8" d="M27.68,78.24l5.44,17.53c0.99,2.36-0.14,5.07-2.52,6.05l0,0c-2.38,0.98-5.1-0.14-6.09-2.5l-7.03-21.33
				L27.68,78.24z"/>
			<path class="st8" d="M24.58,95.62L24.58,95.62c1.07-2.32,3.84-3.35,6.18-2.28l15.53,7.06c2.34,1.06,3.37,3.81,2.3,6.13l0,0
				c-1.07,2.32-3.84,3.35-6.18,2.28l-15.53-7.06C24.53,100.69,23.5,97.94,24.58,95.62z"/>
			<ellipse class="st8" cx="28.81" cy="97.55" rx="4.66" ry="4.63"/>
			<ellipse class="st8" cx="44.34" cy="104.61" rx="4.66" ry="4.63"/>
		</g>
		<g>
			<path class="st4" d="M22.8,60.64c-0.25-0.21-0.58-0.31-0.94-0.28l-3.84,0.31c-0.4,0.03-0.77,0.22-1.04,0.49
				c-0.28,0.27-0.47,0.63-0.52,1.03l-0.25,2.27c-0.01,0.1-0.01,0.19,0,0.28c0.03,0.34,0.18,0.65,0.43,0.85
				c0.25,0.21,0.58,0.31,0.93,0.28c0,0,0,0,0,0l3.84-0.31c0.4-0.03,0.77-0.22,1.04-0.49c0.28-0.27,0.47-0.63,0.52-1.03l0.25-2.27
				c0.01-0.1,0.01-0.19,0-0.28C23.2,61.16,23.05,60.85,22.8,60.64z"/>
			<path class="st23" d="M21.89,60.7l-3.84,0.31c-0.62,0.05-1.18,0.6-1.25,1.23l-0.25,2.27c-0.07,0.63,0.38,1.09,1,1.04l3.84-0.31
				c0.62-0.05,1.18-0.6,1.25-1.23l0.25-2.27C22.95,61.11,22.51,60.65,21.89,60.7z M21.9,61.5l-2.17,1.36l-1.59-1.03L21.9,61.5z
				 M21.83,64.07c-0.02,0.18-0.18,0.34-0.36,0.35l-3.84,0.31c-0.18,0.01-0.3-0.12-0.29-0.3l0.23-1.99l2.05,1.34l2.4-1.46
				L21.83,64.07z"/>
		</g>
		<path class="st8" d="M25.2,65.38L25.2,65.38c1-0.22,1.99,0.41,2.22,1.4l1.61,7.71c0.22,0.99-0.41,1.98-1.41,2.2h0
			c-1,0.22-1.99-0.41-2.22-1.4l-1.61-7.71C23.57,66.59,24.2,65.6,25.2,65.38z"/>
	</g>
	<path class="st8" d="M83.76,94.43L83.76,94.43c2.2,1.17,3.04,3.89,1.86,6.08l-9.35,17.42c-1.17,2.19-3.91,3.01-6.12,1.84
		c-2.2-1.17-3.04-3.89-1.86-6.08l9.35-17.42C78.82,94.08,81.56,93.26,83.76,94.43"/>
	<path class="st8" d="M71.71,111.41c2.48-0.26,4.71,1.52,4.98,3.99c0.27,2.47-1.53,4.68-4.02,4.94c-2.48,0.26-4.71-1.52-4.98-3.99
		C67.43,113.89,69.22,111.68,71.71,111.41"/>
	<path class="st8" d="M92.19,95.36L92.19,95.36c-0.84-2.68-3.69-4.19-6.37-3.37l-4.12,1.39c-2.68,0.82-4.16,3.67-3.32,6.35
		c0.84,2.68,3.69,4.19,6.37,3.37l4.12-1.39C91.55,100.88,93.03,98.04,92.19,95.36"/>
</g>
<g>
	<g>
		<path class="st24" d="M82.94,136.19L82.94,136.19c1.97,3.02,6.03,3.87,9.06,1.92l4.63-3.17c3.04-1.96,3.9-5.99,1.93-9l0,0
			c-1.97-3.02-6.03-3.87-9.06-1.92l-4.63,3.17C81.84,129.15,80.97,133.18,82.94,136.19z"/>
		<path class="st24" d="M94.96,134.75c-2.31,1.78-5.65,1.36-7.45-0.93l-12.85-16.39c-1.8-2.3-1.38-5.62,0.93-7.41
			c2.33-1.79,5.67-1.37,7.46,0.92l12.85,16.39c0.87,1.11,1.26,2.5,1.08,3.9c-0.18,1.4-0.89,2.65-2.01,3.52L94.96,134.75z"/>
		<path class="st25" d="M74.12,118.51L74.12,118.51c2.51,2.61,6.68,2.7,9.31,0.21l17.11-16.26c2.63-2.5,2.72-6.63,0.21-9.24l0,0
			c-2.51-2.61-6.68-2.7-9.31-0.21l-17.11,16.26C71.7,111.76,71.6,115.9,74.12,118.51z"/>
		<ellipse class="st25" cx="78.78" cy="114.08" rx="6.58" ry="6.54"/>
		<ellipse class="st25" cx="95.98" cy="97.74" rx="6.58" ry="6.54"/>
	</g>
	<g>
		<g>
			<path class="st24" d="M135.3,83.99L135.3,83.99c-2.8-0.63-4.54-3.4-3.91-6.18l4.83-20.99c0.64-2.78,3.42-4.51,6.22-3.88l0,0
				c2.8,0.63,4.54,3.4,3.91,6.18l-4.83,20.99C140.88,82.89,138.1,84.62,135.3,83.99z"/>
			<path class="st24" d="M142.16,62.61L142.16,62.61c-3.39,0.77-6.77-1.34-7.55-4.71l-0.79-3.45c-0.77-3.37,1.35-6.72,4.74-7.49l0,0
				c3.39-0.77,6.77,1.34,7.54,4.71l0.79,3.45C147.68,58.49,145.55,61.84,142.16,62.61z"/>
			<path class="st26" d="M145.18,45.41l3.49-2.38c0.85-0.58,1.07-1.73,0.49-2.58v0c-0.58-0.85-1.75-1.07-2.6-0.49l-3.49,2.38
				c-0.85,0.58-1.07,1.73-0.49,2.58v0C143.16,45.77,144.32,45.99,145.18,45.41z"/>
			<g>
				<path class="st27" d="M147.93,53.94c0.31,1.34-0.53,2.68-1.88,2.98l-7.18,1.64c-1.35,0.31-2.69-0.53-3-1.87l-3.79-16.39
					c-0.31-1.34,0.53-2.68,1.88-2.98l7.18-1.64c1.35-0.31,2.69,0.53,3,1.87L147.93,53.94z"/>
				<path class="st28" d="M141.08,56.17c-0.12-0.53,0.21-1.06,0.74-1.18c0.53-0.12,1.06,0.21,1.19,0.74
					c0.12,0.53-0.21,1.06-0.74,1.18C141.73,57.03,141.2,56.69,141.08,56.17z"/>
				<path class="st29" d="M141.47,56.17c0.08,0.33,0.4,0.53,0.73,0.45l0,0c0.33-0.08,0.53-0.4,0.46-0.72c0,0-0.15,0.34-0.53,0.43
					C141.76,56.41,141.47,56.17,141.47,56.17z"/>
				<g>
					<path class="st28" d="M136.94,37.86c-0.16,0.04-0.31-0.06-0.34-0.21l0,0c-0.04-0.15,0.06-0.31,0.22-0.34l1.76-0.4
						c0.16-0.04,0.31,0.06,0.35,0.21l0,0c0.03,0.15-0.06,0.31-0.22,0.34L136.94,37.86z"/>
					<path class="st29" d="M138.67,37.39c0.12-0.02,0.19-0.14,0.16-0.25l0,0c-0.03-0.11-0.14-0.19-0.26-0.16
						c0,0,0.12,0.05,0.15,0.18C138.75,37.29,138.67,37.39,138.67,37.39z"/>
				</g>
				<path class="st30" d="M136.41,37.67"/>
				
					<linearGradient id="SVGID_00000065795951442825057570000003027630911488606119_" gradientUnits="userSpaceOnUse" x1="-38.549" y1="1380.9033" x2="-37.0418" y2="1396.5239" gradientTransform="matrix(0.9449 -0.3273 0.3273 0.9449 -278.7979 -1278.3081)">
					<stop  offset="0" style="stop-color:#2AABE3"/>
					<stop  offset="1" style="stop-color:#1E76BC"/>
				</linearGradient>
				<path style="fill:url(#SVGID_00000065795951442825057570000003027630911488606119_);" d="M138.05,52.88l-1.3,0.29
					c-0.26,0.06-0.52-0.1-0.58-0.36l-2.95-12.87c-0.06-0.26,0.1-0.52,0.36-0.57l8.83-2c0.26-0.06,0.52,0.1,0.58,0.36l2.95,12.87
					c0.06,0.26-0.1,0.52-0.36,0.57l-2.82,0.64L138.05,52.88z"/>
			</g>
			<g>
				<path class="st24" d="M133.97,58.44l3.94-0.9l-2.05-8.83c-0.25-1.08-1.34-1.76-2.43-1.51l0,0c-1.09,0.25-1.77,1.33-1.52,2.41
					L133.97,58.44z"/>
				<path class="st24" d="M142.11,59.51c0,0,0.57-1.88-1.43-3.91s-4.63-1.43-4.63-1.43l-2.08,4.26
					C133.97,58.44,135.33,62.21,142.11,59.51z"/>
			</g>
			<g>
				<path class="st26" d="M147.64,55.53l1.48-1.01c0.85-0.58,1.07-1.73,0.49-2.58v0c-0.58-0.85-1.75-1.07-2.6-0.49l-1.48,1.01
					c-0.85,0.58-1.07,1.73-0.49,2.58l0,0C145.62,55.89,146.79,56.1,147.64,55.53z"/>
				<path class="st32" d="M146.87,52.62c-0.53,0.36-1.17,0.41-1.73,0.2c0.11-0.13,0.24-0.25,0.39-0.35l1.48-1.01
					c0.53-0.36,1.17-0.41,1.73-0.2c-0.11,0.13-0.24,0.25-0.39,0.35L146.87,52.62z"/>
				<path class="st26" d="M146.81,52.35l1.48-1.01c0.85-0.58,1.07-1.73,0.49-2.58v0c-0.58-0.85-1.75-1.07-2.6-0.49l-1.48,1.01
					c-0.85,0.58-1.07,1.73-0.49,2.58v0C144.79,52.71,145.95,52.92,146.81,52.35z"/>
				<path class="st32" d="M146.38,49.22c-0.56,0.38-1.24,0.41-1.81,0.16c0.04-0.03,0.09-0.07,0.13-0.1l1.48-1.01
					c0.56-0.38,1.24-0.41,1.81-0.16c-0.04,0.03-0.09,0.07-0.13,0.1L146.38,49.22z"/>
				<path class="st26" d="M146.31,48.91l1.48-1.01c0.85-0.58,1.07-1.73,0.49-2.58v0c-0.58-0.85-1.75-1.07-2.6-0.49l-1.48,1.01
					c-0.85,0.58-1.07,1.73-0.49,2.58v0C144.29,49.27,145.46,49.49,146.31,48.91z"/>
			</g>
			<g>
				<path class="st4" d="M142.33,40.52c-0.31-0.2-0.71-0.27-1.11-0.18l-4.32,0.94c-0.45,0.1-0.84,0.37-1.11,0.72
					c-0.27,0.35-0.44,0.79-0.43,1.25l0.06,2.62c0,0.11,0.02,0.22,0.04,0.32c0.08,0.38,0.31,0.71,0.62,0.91
					c0.31,0.2,0.71,0.27,1.11,0.18c0,0,0,0,0,0l4.32-0.94c0.45-0.1,0.84-0.37,1.11-0.72c0.27-0.35,0.44-0.79,0.43-1.25l-0.06-2.62
					c0-0.11-0.02-0.22-0.04-0.32C142.87,41.04,142.64,40.72,142.33,40.52z"/>
				<path class="st33" d="M141.3,40.72l-4.32,0.94c-0.7,0.15-1.25,0.86-1.23,1.59l0.06,2.62c0.02,0.72,0.6,1.19,1.3,1.03l4.32-0.94
					c0.7-0.15,1.25-0.86,1.23-1.58l-0.06-2.62C142.58,41.03,142,40.57,141.3,40.72z M141.44,41.63l-2.26,1.88l-1.97-0.93
					L141.44,41.63z M141.76,44.57c0,0.21-0.15,0.41-0.35,0.45l-4.32,0.94c-0.2,0.04-0.37-0.09-0.37-0.29l-0.05-2.3l2.54,1.21
					l2.51-2.03L141.76,44.57z"/>
			</g>
		</g>
		<path class="st25" d="M140.31,74.46L140.31,74.46c-2.83-2.26-6.98-1.81-9.25,1l-14.82,18.34c-2.28,2.82-1.82,6.93,1.01,9.19l0,0
			c2.83,2.26,6.98,1.81,9.25-1l14.82-18.34C143.59,80.84,143.14,76.72,140.31,74.46z"/>
		<ellipse class="st25" cx="136.26" cy="79.46" rx="6.58" ry="6.54"/>
		<ellipse class="st25" cx="121.36" cy="97.9" rx="6.58" ry="6.54"/>
	</g>
	<g>
		<path class="st9" d="M106.87,219.57v-53.08c0-4.15-3.4-7.53-7.58-7.53c-4.18,0-7.58,3.38-7.58,7.53v53.08H106.87z"/>
		<rect x="91.7" y="214.92" class="st34" width="15.16" height="4.65"/>
		<path class="st9" d="M99.29,174.02c-4.18,0-7.58-3.38-7.58-7.53v-39.87c0-4.15,3.4-7.53,7.58-7.53c4.18,0,7.58,3.38,7.58,7.53
			v39.87C106.87,170.64,103.47,174.02,99.29,174.02z"/>
		<ellipse class="st9" cx="99.29" cy="166.49" rx="7.58" ry="7.53"/>
		<ellipse class="st9" cx="99.29" cy="126.62" rx="7.58" ry="7.53"/>
	</g>
	<path class="st34" d="M106.87,219.57c-1.99-3.61-5.85-6.06-10.29-6.06s-8.3,2.45-10.29,6.06H106.87z"/>
	<g>
		<path class="st9" d="M111.38,219.57v-53.08c0-4.15,3.4-7.53,7.58-7.53c4.18,0,7.58,3.38,7.58,7.53v53.08H111.38z"/>
		<rect x="111.38" y="214.92" class="st9" width="15.16" height="4.65"/>
		<path class="st9" d="M118.96,174.02c4.18,0,7.58-3.38,7.58-7.53v-39.87c0-4.15-3.4-7.53-7.58-7.53s-7.58,3.38-7.58,7.53v39.87
			C111.38,170.64,114.78,174.02,118.96,174.02z"/>
		<ellipse class="st9" cx="118.96" cy="166.49" rx="7.58" ry="7.53"/>
		<ellipse class="st9" cx="118.96" cy="126.62" rx="7.58" ry="7.53"/>
	</g>
	<path class="st34" d="M111.38,219.57c1.99-3.61,5.85-6.06,10.29-6.06c4.44,0,8.3,2.45,10.29,6.06H111.38z"/>
	<path class="st9" d="M91.92,122.46c2.42,7.07,9.16,12.16,17.1,12.16h0c7.94,0,14.68-5.09,17.1-12.16H91.92z"/>
	<path class="st35" d="M118.11,89.16h-17.75c-3.61,0-6.61,2.74-6.92,6.31l-2.69,31.44h36.96l-2.69-31.44
		C124.72,91.9,121.72,89.16,118.11,89.16z"/>
	<path class="st36" d="M125.03,95.47c-0.3-3.57-3.31-6.31-6.92-6.31h-5.06c3.61,0,6.61,2.74,6.92,6.31l2.69,31.44h5.06L125.03,95.47
		z"/>
	<g>
		<polygon class="st9" points="107.77,97.67 110.26,97.67 112.45,93.89 105.58,93.89 		"/>
		<polygon class="st9" points="107.91,96.65 105.58,117.41 107.29,120.37 109.02,123.32 110.75,120.37 112.45,117.41 110.12,96.65 
					"/>
	</g>
	<path class="st4" d="M106.21,97.6l0.16-0.29l2.64-4.51l2.64,4.51l0.16,0.29c2.41-1.07,4.09-3.47,4.09-6.26
		c0-3.79-3.09-6.85-6.9-6.85c-3.81,0-6.9,3.07-6.9,6.85C102.12,94.14,103.8,96.54,106.21,97.6z"/>
	<rect x="111.38" y="214.92" class="st34" width="15.16" height="4.65"/>
	<g>
		<path class="st24" d="M104.18,81.99v7.36c0,2.66,2.17,4.81,4.84,4.81c2.67,0,4.84-2.15,4.84-4.81v-7.36H104.18z"/>
		<path class="st26" d="M104.18,88.03c1.59,0.51,3.29,0.79,5.06,0.79h0c1.61,0,3.16-0.23,4.62-0.66v-6.18h-9.68V88.03z"/>
	</g>
	<g>
		<path class="st24" d="M120.96,70.81c0-1.61,1.32-2.91,2.93-2.91c1.62,0,2.93,1.31,2.93,2.92c0,1.61-1.32,2.91-2.94,2.91
			S120.96,72.42,120.96,70.81"/>
		<path class="st24" d="M107.35,48.31l2.43,0c8.38,0.01,15.17,6.77,15.16,15.09l-0.01,6.82c-0.01,8.33-6.81,15.07-15.2,15.06
			l-2.43,0c-8.38-0.01-15.17-6.77-15.16-15.09l0.01-6.82C92.16,55.05,98.96,48.3,107.35,48.31"/>
		<g>
			<g>
				<g>
					<path class="st24" d="M109.78,48.32l-2.43,0c-0.44,0-0.88,0.02-1.31,0.06c7.77,0.67,13.86,7.15,13.85,15.03l-0.01,6.82
						c-0.01,7.89-6.11,14.35-13.88,15c0.43,0.04,0.87,0.06,1.31,0.06l2.43,0c8.38,0.01,15.19-6.73,15.2-15.06l0.01-6.82
						C124.95,55.08,118.16,48.32,109.78,48.32"/>
				</g>
			</g>
			<path class="st9" d="M107.46,66.37l0,0.58c0,0.8,0.65,1.44,1.45,1.44l0.05,0c0.8,0,1.45-0.64,1.45-1.44l0-0.58L107.46,66.37z"/>
			<path class="st9" d="M115.92,66.38l0,0.58c0,0.8,0.65,1.44,1.45,1.44l0.05,0c0.8,0,1.45-0.64,1.45-1.44l0-0.58L115.92,66.38z"/>
			<path class="st9" d="M122.68,55.49l-0.02,20.77l-1.65,0c0-2.14-1.74-3.87-3.89-3.87l-14.54-0.02c-1.99,0-3.61,1.6-3.61,3.58
				l-0.4,0c-0.94,0-1.71-0.76-1.7-1.7l0.02-21.79c-2.91,2.74-4.73,6.61-4.73,10.91l-0.01,12.19c-0.01,8.33,6.78,15.09,15.16,15.09
				l2.43,0c8.38,0.01,15.19-6.73,15.2-15.06l0.01-12.19C124.95,60.5,124.11,57.79,122.68,55.49"/>
			<path class="st4" d="M103.69,75.98l0,0.91c0,2.31,1.88,4.19,4.21,4.19c2.33,0,4.22-1.87,4.22-4.18l0-0.91L103.69,75.98z"/>
			<path class="st9" d="M128.32,46.15L128.32,46.15c-0.01,8.07-6.61,14.61-14.73,14.6l-12.15-0.01c-4.14,0-7.49-3.34-7.48-7.45
				l0-0.95c0-3.44,2.81-6.22,6.27-6.22L128.32,46.15z"/>
		</g>
		<g>
			<path class="st37" d="M123.11,46.14L123.11,46.14c-0.01,8.07-6.61,14.61-14.73,14.6l5.21,0.01c8.13,0.01,14.72-6.53,14.73-14.6
				L123.11,46.14z"/>
		</g>
		<path class="st24" d="M89.21,70.77c0-1.61,1.32-2.91,2.93-2.91s2.93,1.31,2.93,2.92c0,1.61-1.32,2.91-2.94,2.91
			C90.52,73.68,89.21,72.38,89.21,70.77"/>
	</g>
</g>
<g>
	<path class="st24" d="M421.83,67.68L421.83,67.68c-0.11-0.94-0.96-1.62-1.91-1.51l-3.37,0.48c-0.95,0.11-1.63,0.96-1.52,1.9v0
		c0.11,0.94,0.96,1.62,1.91,1.51l3.37-0.48C421.26,69.47,421.94,68.62,421.83,67.68z"/>
	<path class="st24" d="M414.82,79.11L414.82,79.11c0.56-2.51-1.03-4.99-3.56-5.55l-2.59-0.47c-2.52-0.56-5.02,1.03-5.58,3.53v0
		c-0.56,2.51,1.03,4.99,3.56,5.55l2.59,0.47C411.76,83.2,414.26,81.62,414.82,79.11z"/>
	<g>
		<g>
			<g>
				
					<linearGradient id="SVGID_00000068640737299328832390000017659619291221187753_" gradientUnits="userSpaceOnUse" x1="327.7821" y1="-224.5989" x2="328.1452" y2="-215.0369" gradientTransform="matrix(0.9929 -0.1193 0.1193 0.9929 111.998 325.0973)">
					<stop  offset="0" style="stop-color:#2AABE3"/>
					<stop  offset="1" style="stop-color:#1E76BC"/>
				</linearGradient>
				<path style="fill:url(#SVGID_00000068640737299328832390000017659619291221187753_);" d="M409.57,59.82l5.71,0.51
					c1.05,0.09,1.83,1.01,1.73,2.06l-1.34,13.94c-0.09,1.04-1.02,1.81-2.07,1.72l-5.71-0.51c-1.05-0.09-1.83-1.01-1.73-2.06
					l1.34-13.94C407.6,60.5,408.52,59.73,409.57,59.82z"/>
				<path class="st39" d="M414.06,78.46c-0.16,0.02-0.32,0.02-0.49,0.01l-5.71-0.51c-1.28-0.11-2.23-1.24-2.12-2.51l1.34-13.94
					c0.11-1.27,1.25-2.21,2.53-2.1l5.71,0.51c0.62,0.05,1.18,0.35,1.58,0.82c0.4,0.47,0.59,1.08,0.53,1.69l-1.34,13.94
					c-0.06,0.62-0.35,1.17-0.83,1.57C414.92,78.23,414.5,78.41,414.06,78.46z M409.23,60.25c-0.68,0.08-1.24,0.63-1.3,1.34
					l-1.34,13.94c-0.07,0.81,0.53,1.53,1.35,1.6l5.71,0.51c0.4,0.03,0.78-0.09,1.09-0.34c0.3-0.25,0.49-0.61,0.53-1l1.34-13.94
					c0.04-0.39-0.09-0.78-0.34-1.08c-0.25-0.3-0.61-0.49-1.01-0.52l-5.71-0.51C409.43,60.23,409.33,60.24,409.23,60.25z"/>
			</g>
			<g>
				<line class="st4" x1="409.06" y1="76.47" x2="412.65" y2="76.79"/>
				<path class="st5" d="M412.67,76.98c-0.01,0-0.03,0-0.04,0l-3.59-0.32c-0.11-0.01-0.19-0.1-0.18-0.21
					c0.01-0.11,0.1-0.19,0.21-0.18l3.59,0.32c0.11,0.01,0.19,0.1,0.18,0.21C412.83,76.9,412.76,76.97,412.67,76.98z"/>
			</g>
		</g>
	</g>
	<g>
		<path class="st24" d="M417.95,77.24L417.95,77.24c-0.11-0.94-0.96-1.62-1.91-1.51l-1.47,0.21c-0.95,0.11-1.63,0.96-1.52,1.9l0,0
			c0.11,0.94,0.96,1.62,1.91,1.51l1.47-0.21C417.38,79.04,418.06,78.19,417.95,77.24z"/>
		<path class="st24" d="M418.56,74.42L418.56,74.42c-0.11-0.94-0.96-1.62-1.91-1.51l-1.47,0.21c-0.95,0.11-1.63,0.96-1.52,1.9v0
			c0.11,0.94,0.96,1.62,1.91,1.51l1.47-0.21C417.98,76.21,418.66,75.36,418.56,74.42z"/>
		<path class="st24" d="M419.24,71.21L419.24,71.21c-0.11-0.94-0.96-1.62-1.91-1.51l-1.47,0.21c-0.95,0.11-1.63,0.96-1.52,1.9v0
			c0.11,0.94,0.96,1.62,1.91,1.51l1.47-0.21C418.67,73,419.35,72.15,419.24,71.21z"/>
	</g>
	<path class="st24" d="M406.5,66.86L406.5,66.86c-0.99-0.22-1.97,0.4-2.19,1.39l-1.6,7.64c-0.22,0.98,0.41,1.96,1.4,2.18l0,0
		c0.99,0.22,1.97-0.4,2.19-1.39l1.6-7.64C408.12,68.05,407.49,67.08,406.5,66.86z"/>
	<path class="st24" d="M408.79,80.21c0.23-0.4,0.41-0.84,0.51-1.31v0c0.56-2.51-1.03-4.99-3.56-5.55l-1.03-0.2l-1.26,5.94
		L408.79,80.21z"/>
	<path class="st40" d="M368.73,134.1h13.77c7.58-2.78,12.99-10.03,12.99-18.52V82.27c0-10.9-8.9-19.74-19.87-19.74h0
		c-10.98,0-19.87,8.84-19.87,19.74v33.31C355.74,124.08,361.15,131.32,368.73,134.1z"/>
	<ellipse class="st24" cx="393.56" cy="84.45" rx="2.98" ry="2.96"/>
	<ellipse class="st24" cx="358.23" cy="84.45" rx="2.98" ry="2.96"/>
	<g>
		<path class="st24" d="M404.05,79.59l-8.5,23.54c-0.98,2.34,0.14,5.02,2.49,5.99l0,0c2.35,0.97,5.05-0.14,6.03-2.47l10.08-27.31
			L404.05,79.59z"/>
		<path class="st24" d="M404,102.99L404,102.99c-1.06-2.3-3.8-3.31-6.11-2.26l-15.37,6.99c-2.32,1.05-3.33,3.77-2.27,6.07v0
			c1.06,2.3,3.8,3.31,6.11,2.26l15.37-6.99C404.04,108.01,405.06,105.29,404,102.99z"/>
		<ellipse class="st24" cx="399.81" cy="104.89" rx="4.61" ry="4.58"/>
		<ellipse class="st24" cx="384.43" cy="111.88" rx="4.61" ry="4.58"/>
	</g>
	<path class="st24" d="M345.1,98.92L345.1,98.92c-2.39,0.86-3.63,3.49-2.76,5.87l6.93,18.94c0.87,2.38,3.52,3.61,5.91,2.74l0,0
		c2.39-0.86,3.63-3.49,2.76-5.87l-6.93-18.94C350.14,99.28,347.5,98.05,345.1,98.92z"/>
	<path class="st24" d="M349.84,124.8L349.84,124.8c1.47,2.07,4.34,2.57,6.43,1.11l13.83-9.67c2.08-1.46,2.58-4.31,1.12-6.38v0
		c-1.47-2.07-4.34-2.57-6.43-1.11l-13.83,9.67C348.87,119.87,348.37,122.73,349.84,124.8z"/>
	<ellipse class="st24" cx="353.61" cy="122.16" rx="4.61" ry="4.58"/>
	<ellipse class="st24" cx="367.44" cy="112.5" rx="4.61" ry="4.58"/>
	<path class="st41" d="M382.78,106.64h-14.6v0c-5.43,3.7-6.84,11.06-3.15,16.47l2.27,3.17h16.46l2.16-3.17
		C389.61,117.69,388.21,110.33,382.78,106.64L382.78,106.64z"/>
	<path class="st42" d="M378.63,106.64h4.15l0,0c5.43,3.7,6.84,11.06,3.15,16.47l-2.16,3.17h-4.15l2.16-3.17
		C385.46,117.69,384.06,110.33,378.63,106.64z"/>
	
		<rect x="367.3" y="126.28" transform="matrix(-1 -4.474611e-11 4.474611e-11 -1 751.0569 255.3046)" class="st43" width="16.46" height="2.75"/>
	<rect x="381.32" y="126.28" class="st44" width="2.44" height="2.75"/>
	
		<rect x="372.67" y="125.43" transform="matrix(-1 -4.449697e-11 4.449697e-11 -1 751.6739 255.1632)" class="st45" width="6.34" height="4.31"/>
	<path class="st24" d="M378.83,92.79h-6.66v15.99c0,1.83,1.49,3.32,3.32,3.32h0.02c1.83,0,3.32-1.49,3.32-3.32V92.79z"/>
	<path class="st26" d="M378.83,102.98c-1.04,0.2-2.12,0.31-3.22,0.31h0c-1.18,0-2.33-0.12-3.44-0.36V92.79h6.66V102.98z"/>
	<path class="st24" d="M375.67,63.71h-0.11c-9.17,0-16.61,7.44-16.61,16.61v4.36c0,9.17,7.44,16.61,16.61,16.61h0.11
		c9.17,0,16.61-7.44,16.61-16.61v-4.36C392.28,71.14,384.84,63.71,375.67,63.71z"/>
	<path class="st46" d="M387.99,84.73v-4.47c0-8.42-6.33-15.36-14.52-16.41c0.7-0.09,1.42-0.14,2.14-0.14l0,0
		c9.2,0,16.66,7.41,16.66,16.55v4.47c0,9.14-7.46,16.55-16.66,16.55l0,0c-0.73,0-1.44-0.05-2.14-0.14
		C381.66,100.1,387.99,93.15,387.99,84.73z"/>
	<path class="st4" d="M379.9,90.78c0,2.35-1.92,4.26-4.29,4.26c-2.37,0-4.29-1.91-4.29-4.26H379.9z"/>
	<path class="st40" d="M375.7,62.54c10.82,0.12,19.56,8.81,19.65,19.56h0c-10.85,0-19.65-8.74-19.65-19.52V62.54z"/>
	<path class="st47" d="M364.73,81.71h-9.12c0.3-10.64,9.07-19.18,19.86-19.18h0c2.55,0,4.98,0.48,7.21,1.35v0
		C382.68,73.73,374.64,81.71,364.73,81.71z"/>
	<ellipse class="st9" cx="382.68" cy="84.22" rx="1.74" ry="1.73"/>
	<ellipse class="st9" cx="373.13" cy="84.22" rx="1.74" ry="1.73"/>
	<path class="st24" d="M350.37,104.39L350.37,104.39c-1.56,2.39-4.78,3.07-7.19,1.52l-3.68-2.51c-2.41-1.55-3.09-4.75-1.53-7.15l0,0
		c1.56-2.39,4.78-3.07,7.19-1.52l3.68,2.51C351.25,98.8,351.94,102,350.37,104.39z"/>
	<g>
		<path class="st4" d="M415.32,64.33c-0.21-0.25-0.53-0.41-0.88-0.44l-3.88-0.34c-0.41-0.04-0.8,0.09-1.12,0.31
			c-0.32,0.22-0.58,0.55-0.69,0.94l-0.64,2.21c-0.03,0.09-0.04,0.19-0.05,0.28c-0.03,0.34,0.07,0.67,0.28,0.92
			c0.21,0.25,0.52,0.41,0.88,0.44c0,0,0,0,0,0l3.88,0.34c0.41,0.04,0.8-0.09,1.12-0.31c0.32-0.22,0.58-0.55,0.69-0.94l0.64-2.21
			c0.03-0.09,0.04-0.19,0.05-0.28C415.63,64.91,415.53,64.58,415.32,64.33z"/>
		<path class="st33" d="M414.41,64.23l-3.88-0.34c-0.63-0.06-1.28,0.39-1.45,1.01l-0.64,2.21c-0.18,0.61,0.19,1.15,0.81,1.21
			l3.88,0.34c0.63,0.06,1.28-0.39,1.45-1.01l0.64-2.21C415.4,64.83,415.03,64.29,414.41,64.23z M414.28,65.03l-2.4,0.98l-1.4-1.3
			L414.28,65.03z M413.77,67.58c-0.05,0.18-0.24,0.3-0.42,0.29l-3.88-0.34c-0.18-0.02-0.28-0.17-0.23-0.34l0.57-1.94l1.81,1.68
			l2.64-1.05L413.77,67.58z"/>
	</g>
	<path class="st24" d="M382.44,219.57L382.44,219.57c-2.95,0-5.34-2.38-5.34-5.32l0.05-41.09c0-2.93,2.4-5.31,5.35-5.3
		c2.95,0,5.34,2.38,5.34,5.32l-0.05,41.09C387.79,217.2,385.39,219.58,382.44,219.57"/>
	<path class="st24" d="M382.49,178.48L382.49,178.48c-2.95,0-5.34-2.38-5.34-5.32l0.04-35.5c0-2.93,2.4-5.31,5.35-5.3
		c2.95,0,5.34,2.38,5.34,5.32l-0.04,35.5C387.83,176.11,385.44,178.48,382.49,178.48"/>
	<path class="st24" d="M377.15,173.16c0-2.93,2.4-5.31,5.35-5.3c2.95,0,5.34,2.38,5.34,5.32s-2.4,5.31-5.35,5.3
		C379.53,178.48,377.14,176.1,377.15,173.16"/>
	<path class="st24" d="M377.19,137.66c0-2.93,2.4-5.31,5.35-5.3c2.95,0,5.34,2.38,5.34,5.32c0,2.93-2.4,5.31-5.35,5.3
		C379.57,142.97,377.18,140.59,377.19,137.66"/>
	<path class="st48" d="M377.1,209.77l-0.01,4.49c0,2.93,2.39,5.31,5.34,5.32c2.95,0,5.35-2.37,5.35-5.3l0.01-4.49L377.1,209.77z"/>
	<path class="st24" d="M369.09,219.56L369.09,219.56c-2.95,0-5.34-2.38-5.34-5.32l0.05-41.09c0-2.93,2.4-5.31,5.35-5.3
		c2.95,0,5.34,2.38,5.34,5.32l-0.05,41.09C374.44,217.19,372.04,219.56,369.09,219.56"/>
	<path class="st24" d="M369.13,178.46L369.13,178.46c-2.95,0-5.34-2.38-5.34-5.32l0.04-35.5c0-2.93,2.4-5.31,5.35-5.3
		c2.95,0,5.34,2.38,5.34,5.32l-0.04,35.5C374.48,176.09,372.09,178.47,369.13,178.46"/>
	<path class="st24" d="M363.8,173.15c0-2.93,2.4-5.31,5.35-5.3c2.95,0,5.34,2.38,5.34,5.32s-2.4,5.31-5.35,5.3
		C366.18,178.46,363.79,176.08,363.8,173.15"/>
	<path class="st24" d="M363.84,137.64c0-2.93,2.4-5.31,5.35-5.3c2.95,0,5.34,2.38,5.34,5.32c0,2.93-2.4,5.31-5.35,5.3
		C366.22,142.96,363.83,140.58,363.84,137.64"/>
	<path class="st48" d="M363.75,209.75l-0.01,4.49c0,2.93,2.39,5.31,5.34,5.32h0c2.95,0,5.35-2.37,5.35-5.3l0.01-4.49L363.75,209.75z
		"/>
	
		<rect x="377.97" y="151.64" transform="matrix(1.130133e-03 -1 1 1.130133e-03 225.0978 539.3132)" class="st26" width="9.08" height="10.69"/>
	
		<rect x="364.62" y="151.62" transform="matrix(1.130133e-03 -1 1 1.130133e-03 211.7764 525.9467)" class="st26" width="9.08" height="10.69"/>
	<path class="st48" d="M393.08,156.81l-35.22-0.04l-0.49-2.75c-1.69-9.53,1.74-19.15,9.92-24.99l15.78,0.02h0.68
		c8.17,5.86,11.53,15.49,9.81,25.02L393.08,156.81z"/>
	<g class="st49">
		<path class="st42" d="M377.84,129.03c-0.04,0-0.06,0.05-0.03,0.08c8.09,5.87,11.41,15.46,9.7,24.94l-0.48,2.69
			c0,0.03,0.02,0.05,0.04,0.05l5.96,0.01c0.02,0,0.04-0.02,0.04-0.04l0.49-2.71c1.71-9.52-1.64-19.15-9.8-25.01
			c-0.01-0.01-0.02-0.01-0.03-0.01H377.84z"/>
	</g>
</g>
<g>
	<g>
		<path class="st5" d="M283.72,114.3L283.72,114.3c2.54,2.64,6.76,2.73,9.42,0.21l17.32-16.45c2.66-2.53,2.75-6.71,0.21-9.35l0,0
			c-2.54-2.64-6.76-2.73-9.42-0.21l-17.32,16.45C281.27,107.47,281.18,111.66,283.72,114.3z"/>
		<ellipse class="st5" cx="288.44" cy="109.82" rx="6.66" ry="6.62"/>
		<ellipse class="st5" cx="305.85" cy="93.28" rx="6.66" ry="6.62"/>
	</g>
	<g>
		<g>
			<path class="st1" d="M289.82,113.73L289.82,113.73c2.8-0.63,4.54-3.4,3.91-6.18l-4.83-20.99c-0.64-2.78-3.42-4.51-6.22-3.88l0,0
				c-2.8,0.63-4.54,3.4-3.91,6.18l4.83,20.99C284.24,112.63,287.03,114.37,289.82,113.73z"/>
			<path class="st1" d="M282.96,92.35L282.96,92.35c3.39,0.77,6.77-1.34,7.55-4.71l0.79-3.45c0.77-3.37-1.35-6.72-4.74-7.49l0,0
				c-3.39-0.77-6.77,1.34-7.54,4.71l-0.79,3.45C277.45,88.23,279.57,91.59,282.96,92.35z"/>
			<path class="st1" d="M279.95,75.15l-3.49-2.38c-0.85-0.58-1.07-1.73-0.49-2.58v0c0.58-0.85,1.75-1.07,2.6-0.49l3.49,2.38
				c0.85,0.58,1.07,1.73,0.49,2.58l0,0C281.96,75.51,280.8,75.73,279.95,75.15z"/>
			<g>
				<path class="st27" d="M277.19,83.69c-0.31,1.34,0.53,2.68,1.88,2.98l7.18,1.64c1.35,0.31,2.69-0.53,3-1.87l3.79-16.39
					c0.31-1.34-0.53-2.68-1.88-2.98l-7.18-1.64c-1.35-0.31-2.69,0.53-3,1.87L277.19,83.69z"/>
				<path class="st28" d="M284.05,85.91c0.12-0.53-0.21-1.06-0.74-1.18c-0.53-0.12-1.06,0.21-1.19,0.74
					c-0.12,0.53,0.21,1.06,0.74,1.18C283.39,86.77,283.92,86.44,284.05,85.91z"/>
				<path class="st29" d="M283.65,85.91c-0.08,0.33-0.4,0.53-0.73,0.45l0,0c-0.33-0.08-0.53-0.4-0.46-0.72c0,0,0.15,0.34,0.52,0.43
					C283.37,86.16,283.65,85.91,283.65,85.91z"/>
				<g>
					<path class="st28" d="M288.18,67.6c0.16,0.04,0.31-0.06,0.34-0.21l0,0c0.04-0.15-0.06-0.31-0.22-0.34l-1.76-0.4
						c-0.16-0.04-0.31,0.06-0.35,0.21l0,0c-0.03,0.15,0.06,0.31,0.22,0.34L288.18,67.6z"/>
					<path class="st29" d="M286.46,67.13c-0.12-0.02-0.19-0.14-0.16-0.25l0,0c0.03-0.11,0.14-0.19,0.26-0.16
						c0,0-0.12,0.05-0.15,0.18C286.37,67.04,286.46,67.13,286.46,67.13z"/>
				</g>
				<path class="st30" d="M288.71,67.42"/>
				
					<linearGradient id="SVGID_00000060710102847697651220000006381112840106512061_" gradientUnits="userSpaceOnUse" x1="-3845.3838" y1="93.69" x2="-3843.8765" y2="109.3106" gradientTransform="matrix(-0.9449 -0.3273 -0.3273 0.9449 -3314.5378 -1278.3081)">
					<stop  offset="0" style="stop-color:#2AABE3"/>
					<stop  offset="1" style="stop-color:#1E76BC"/>
				</linearGradient>
				<path style="fill:url(#SVGID_00000060710102847697651220000006381112840106512061_);" d="M287.07,82.62l1.3,0.29
					c0.26,0.06,0.52-0.1,0.58-0.36l2.95-12.87c0.06-0.26-0.1-0.52-0.36-0.57l-8.83-2c-0.26-0.06-0.52,0.1-0.58,0.36l-2.95,12.87
					c-0.06,0.26,0.1,0.52,0.36,0.57l2.82,0.64L287.07,82.62z"/>
			</g>
			<g>
				<path class="st1" d="M291.16,88.18l-3.94-0.9l2.05-8.83c0.25-1.08,1.34-1.76,2.43-1.51l0,0c1.09,0.25,1.77,1.33,1.52,2.41
					L291.16,88.18z"/>
				<path class="st1" d="M283.02,89.25c0,0-0.57-1.88,1.43-3.91c2-2.03,4.63-1.43,4.63-1.43l2.08,4.26
					C291.16,88.18,289.79,91.96,283.02,89.25z"/>
			</g>
			<g>
				<path class="st1" d="M277.49,85.27L276,84.27c-0.85-0.58-1.07-1.73-0.49-2.58v0c0.58-0.85,1.75-1.07,2.6-0.49l1.48,1.01
					c0.85,0.58,1.07,1.73,0.49,2.58v0C279.5,85.63,278.34,85.85,277.49,85.27z"/>
				<path class="st51" d="M278.25,82.37c0.53,0.36,1.17,0.41,1.73,0.2c-0.11-0.13-0.24-0.25-0.39-0.35l-1.48-1.01
					c-0.53-0.36-1.17-0.41-1.73-0.2c0.11,0.13,0.24,0.25,0.39,0.35L278.25,82.37z"/>
				<path class="st1" d="M278.32,82.09l-1.48-1.01c-0.85-0.58-1.07-1.73-0.49-2.58v0c0.58-0.85,1.75-1.07,2.6-0.49l1.48,1.01
					c0.85,0.58,1.07,1.73,0.49,2.58l0,0C280.33,82.45,279.17,82.67,278.32,82.09z"/>
				<path class="st51" d="M278.74,78.97c0.56,0.38,1.24,0.41,1.81,0.16c-0.04-0.03-0.09-0.07-0.13-0.1l-1.48-1.01
					c-0.56-0.38-1.24-0.41-1.81-0.16c0.04,0.03,0.09,0.07,0.13,0.1L278.74,78.97z"/>
				<path class="st1" d="M278.81,78.66l-1.48-1.01c-0.85-0.58-1.07-1.73-0.49-2.58l0,0c0.58-0.85,1.75-1.07,2.6-0.49l1.48,1.01
					c0.85,0.58,1.07,1.73,0.49,2.58v0C280.83,79.02,279.67,79.24,278.81,78.66z"/>
			</g>
			<g>
				<path class="st4" d="M290.49,71.53c-0.21-0.34-0.57-0.59-1-0.68l-4.65-1.05c-0.49-0.11-0.99-0.02-1.42,0.2
					c-0.43,0.22-0.79,0.57-1,1.03l-1.15,2.58c-0.05,0.11-0.09,0.22-0.11,0.33c-0.1,0.41-0.03,0.83,0.19,1.17
					c0.21,0.34,0.57,0.58,1,0.68c0,0,0,0,0,0l4.65,1.05c0.49,0.11,0.99,0.02,1.42-0.2c0.43-0.22,0.79-0.57,1-1.03l1.15-2.58
					c0.05-0.11,0.09-0.22,0.11-0.33C290.78,72.29,290.71,71.87,290.49,71.53z"/>
				<path class="st33" d="M289.4,71.26l-4.65-1.05c-0.75-0.17-1.62,0.27-1.94,0.98l-1.15,2.58c-0.32,0.71,0.03,1.43,0.79,1.6
					l4.65,1.05c0.75,0.17,1.62-0.27,1.94-0.98l1.15-2.58C290.5,72.15,290.15,71.43,289.4,71.26z M289.12,72.22l-3.08,0.8l-1.49-1.81
					L289.12,72.22z M288.06,75.23c-0.09,0.2-0.34,0.33-0.55,0.28l-4.65-1.05c-0.21-0.05-0.32-0.25-0.22-0.46l1.02-2.26l1.92,2.34
					l3.39-0.84L288.06,75.23z"/>
			</g>
		</g>
	</g>
	<path class="st1" d="M298.73,218.29v-53.72c0-4.2,3.44-7.62,7.67-7.62c4.23,0,7.67,3.42,7.67,7.62v53.72H298.73z"/>
	<path class="st1" d="M327.95,130.73c2.34,1.8,5.72,1.37,7.54-0.94l13-16.59c1.82-2.33,1.4-5.69-0.94-7.5
		c-2.35-1.81-5.74-1.38-7.55,0.93l-13,16.59c-0.88,1.13-1.27,2.53-1.09,3.94c0.18,1.42,0.9,2.68,2.03,3.56L327.95,130.73z"/>
	<g>
		<path class="st5" d="M349.49,114.3L349.49,114.3c-2.54,2.64-6.76,2.73-9.42,0.21l-17.32-16.45c-2.66-2.53-2.75-6.71-0.21-9.35l0,0
			c2.54-2.64,6.76-2.73,9.42-0.21l17.32,16.45C351.94,107.47,352.03,111.66,349.49,114.3z"/>
		<ellipse class="st5" cx="344.76" cy="109.82" rx="6.66" ry="6.62"/>
		<ellipse class="st5" cx="327.36" cy="93.28" rx="6.66" ry="6.62"/>
	</g>
	<path class="st52" d="M322.06,84.55h-11.4c-1.01,0-1.9,0.64-2.23,1.58l-0.07,0.2h16l-0.07-0.2
		C323.96,85.19,323.07,84.55,322.06,84.55z"/>
	<path class="st1" d="M337.83,137.65L337.83,137.65c-3.29,1.61-7.26,0.26-8.88-3l-2.37-5.14c-1.62-3.26-0.27-7.21,3.02-8.82l0,0
		c3.29-1.61,7.26-0.26,8.88,3l2.37,5.14C342.47,132.09,341.11,136.04,337.83,137.65z"/>
	<path class="st9" d="M314.07,202.78v-38.21c0-4.2-3.44-7.62-7.67-7.62c-4.23,0-7.67,3.42-7.67,7.62v38.21H314.07z"/>
	<g>
		<g>
			<path class="st9" d="M306.4,172.19c-4.23,0-7.67-3.42-7.67-7.62v-40.35c0-4.2,3.44-7.62,7.67-7.62s7.67,3.42,7.67,7.62v40.35
				C314.07,168.77,310.63,172.19,306.4,172.19z"/>
			<ellipse class="st9" cx="306.4" cy="164.57" rx="7.67" ry="7.62"/>
		</g>
		<ellipse class="st9" cx="306.4" cy="124.22" rx="7.67" ry="7.62"/>
	</g>
	<path class="st1" d="M314.07,218.29c-2.02-3.65-5.92-6.13-10.41-6.13s-8.4,2.48-10.41,6.13H314.07z"/>
	<path class="st1" d="M318.64,218.29v-53.72c0-4.2,3.44-7.62,7.67-7.62c4.23,0,7.67,3.42,7.67,7.62v53.72H318.64z"/>
	<path class="st9" d="M326.32,172.19c4.23,0,7.67-3.42,7.67-7.62v-40.35c0-4.2-3.44-7.62-7.67-7.62c-4.23,0-7.67,3.42-7.67,7.62
		v40.35C318.64,168.77,322.08,172.19,326.32,172.19z"/>
	<ellipse class="st5" cx="326.32" cy="164.57" rx="7.67" ry="7.62"/>
	<ellipse class="st9" cx="326.32" cy="124.22" rx="7.67" ry="7.62"/>
	<path class="st1" d="M318.64,218.29c2.02-3.65,5.92-6.13,10.41-6.13s8.4,2.48,10.41,6.13H318.64z"/>
	<path class="st9" d="M299.06,120.01c2.45,7.16,9.27,12.31,17.3,12.31h0c8.03,0,14.85-5.15,17.3-12.31H299.06z"/>
	<path class="st53" d="M325.34,86.31h-17.96c-3.65,0-6.69,2.78-7,6.39l-2.72,31.82l16.35,1.29l2.36-5.1l2.99,6.03l15.71-2.22
		l-2.72-31.82C332.03,89.09,328.99,86.31,325.34,86.31z"/>
	<g>
		<path class="st5" d="M309.25,87.99l-0.02-1.68h-1.87c-4.21,0.02-7.14,2.91-7.45,6.52l-2.3,32.29l14.83-0.6
			c2.17,0,3.93-1.75,3.93-3.91v-15.2l0,0C311.95,100.65,309.42,94.46,309.25,87.99z"/>
		<path class="st5" d="M323.47,87.99l0.02-1.68h1.87c4.1,0,6.97,3.03,7.28,6.64l2.44,31.57h-14.79c-2.17,0-3.93-1.75-3.93-3.91
			v-15.2l0,0C320.77,100.65,323.29,94.46,323.47,87.99z"/>
		<path class="st54" d="M315.46,111.1c0-0.49,0.4-0.9,0.9-0.9s0.9,0.4,0.9,0.9s-0.4,0.9-0.9,0.9S315.46,111.6,315.46,111.1z"/>
		<path class="st54" d="M315.46,119.61c0-0.49,0.4-0.9,0.9-0.9s0.9,0.4,0.9,0.9c0,0.49-0.4,0.9-0.9,0.9S315.46,120.1,315.46,119.61z
			"/>
	</g>
	<g>
		<polygon class="st1" points="321.26,88.58 321.26,79.06 311.46,79.06 311.46,88.58 316.36,93.62 		"/>
		<path class="st55" d="M311.46,85.17c1.61,0.52,3.33,0.8,5.12,0.8h0c1.62,0,3.19-0.24,4.68-0.67v-6.25h-9.8V85.17z"/>
	</g>
	<g>
		<path class="st56" d="M330.74,52.2L330.74,52.2c1.89,0,3.41,1.52,3.41,3.39v10.83c0,1.87-1.53,3.39-3.41,3.39l0,0
			c-1.89,0-3.41-1.52-3.41-3.39V55.6C327.32,53.72,328.85,52.2,330.74,52.2z"/>
		<ellipse class="st1" cx="332.36" cy="69.4" rx="2.97" ry="2.95"/>
		<path class="st1" d="M315.35,46.66h2.57c8.46,0,15.31,6.85,15.31,15.31v6.8c0,8.45-6.85,15.31-15.31,15.31h-2.57
			c-8.45,0-15.31-6.85-15.31-15.31v-6.8C300.04,53.51,306.89,46.66,315.35,46.66z"/>
		<path class="st55" d="M317.86,46.66h-2.46c-0.28,0-0.55,0.01-0.83,0.02c8.09,0.44,14.51,7.09,14.51,15.23v6.9
			c0,8.14-6.42,14.8-14.51,15.23c0.27,0.01,0.55,0.02,0.83,0.02h2.46c8.48,0,15.36-6.83,15.36-15.26v-6.9
			C333.22,53.49,326.35,46.66,317.86,46.66z"/>
		<path class="st56" d="M302.56,52.2L302.56,52.2c1.89,0,3.41,1.52,3.41,3.39v10.83c0,1.87-1.53,3.39-3.41,3.39l0,0
			c-1.89,0-3.41-1.52-3.41-3.39V55.6C299.14,53.72,300.67,52.2,302.56,52.2z"/>
		<path class="st56" d="M335.33,52.44L335.33,52.44c-1.07,4-4.71,6.79-8.88,6.79h-6.11c-6.89,0-13.7-1.44-19.99-4.23l0,0l0,0
			c0-3.11,1.96-5.89,4.91-6.96l18.06-6.52C330.28,39.02,337.22,45.32,335.33,52.44z"/>
		<ellipse class="st1" cx="300.04" cy="69.4" rx="2.97" ry="2.95"/>
		<path class="st9" d="M315.53,64.93v0.59c0,0.81,0.66,1.46,1.47,1.46h0.05c0.81,0,1.47-0.65,1.47-1.46v-0.59H315.53z"/>
		<path class="st9" d="M324.1,64.93v0.59c0,0.81,0.66,1.46,1.47,1.46h0.05c0.81,0,1.47-0.65,1.47-1.46v-0.59H324.1z"/>
		<path class="st4" d="M309.88,72.7v1.23c0,3.13,2.56,5.68,5.71,5.68h0c3.16,0,5.71-2.54,5.71-5.68V72.7H309.88z"/>
	</g>
	<g>
		<polygon class="st52" points="310.37,96.25 316.36,93.62 311.46,88.58 308.36,88.58 		"/>
		<rect x="308.36" y="86.31" class="st52" width="3.1" height="2.26"/>
		<g>
			<polygon class="st52" points="322.35,96.25 316.36,93.62 321.26,88.58 324.36,88.58 			"/>
			
				<rect x="321.26" y="86.31" transform="matrix(-1 -1.224647e-16 1.224647e-16 -1 645.6177 174.8896)" class="st52" width="3.1" height="2.26"/>
		</g>
	</g>
	<path class="st9" d="M318.64,202.78v-38.21c0-4.2,3.44-7.62,7.67-7.62c4.23,0,7.67,3.42,7.67,7.62v38.21H318.64z"/>
	<line class="st57" x1="296.99" y1="214.2" x2="296.99" y2="218.29"/>
	<rect x="292.9" y="218.29" class="st58" width="21.53" height="1.28"/>
	<g>
		<line class="st57" x1="335.72" y1="214.2" x2="335.72" y2="218.29"/>
		
			<rect x="318.29" y="218.29" transform="matrix(-1 -1.224647e-16 1.224647e-16 -1 658.1114 437.863)" class="st58" width="21.53" height="1.28"/>
	</g>
</g>
</svg>
